<svg xmlns="http://www.w3.org/2000/svg" viewBox="0 0 115.69 167.97"><path d="M115.69,0V48.07c0,7.56-5.89,13.71-13.14,13.71H70.09c-6.56,0-10.35-3.11-10.67-8.75l-.05-.92-.92,0-4-.1-.93,0-.09.92c-.59,5.57-6,9.46-13.15,9.46H12.76C5.49,62.35,0,56.7,0,49.21V0H18.68V44.24h32V10.35H66.33v29H98.72V0Z" style="fill:#d93a2b"/><path d="M101.33,69.91H14.72c-8,0-14.56,7.38-14.56,16.46V152.1c0,9.05,6.1,15.87,14.19,15.87H38.26V149h0V136.56H78.53v8.86h0V168h22.8c8.09,0,14.2-6.82,14.2-15.87V85.78C115.53,76.73,109.42,69.91,101.33,69.91Zm-6,37.66H85.53V93.11h9.84Zm-57.11,0V93.11H78.53v14.46Zm17.2,7v15H20.31v-15Zm7,0H95.37v15H62.46ZM31.26,93.11v14.46h-11V93.11Zm0,51.86h-11v-8.41h11Zm54.27,0v-8.41h9.84V145Z" style="fill:#333"/></svg>