<?xml version="1.0" encoding="UTF-8"?>
<svg width="144px" height="21px" viewBox="0 0 144 21" version="1.1" xmlns="http://www.w3.org/2000/svg" xmlns:xlink="http://www.w3.org/1999/xlink">
    <!-- Generator: sketchtool 58 (101010) - https://sketch.com -->
    <title>D3BF2B00-9263-4C1E-9294-4D73E1716A48</title>
    <desc>Created with sketchtool.</desc>
    <g id="home" stroke="none" stroke-width="1" fill="none" fill-rule="evenodd">
        <g id="W---Home" transform="translate(-40.000000, -42.000000)" fill-rule="nonzero">
            <g id="intro">
                <g id="nav/web/header">
                    <g id="nav/header">
                        <g id="logo/horizontal-large-logo/horizontal/colour" transform="translate(40.000000, 40.000000)">
                            <g id="Group-2" transform="translate(0.531136, 2.124542)">
                                <g id="shape" transform="translate(0.262620, 0.262620)">
                                    <g id="Group">
                                        <polygon id="Fill-1" fill="#252525" points="0 19.4373102 9.71793402 19.4373102 4.85865551 9.71804016"></polygon>
                                        <polygon id="Fill-2" fill="#252525" points="9.71793301 19.4373102 19.434621 19.4373102 14.5759655 9.7192923"></polygon>
                                        <polygon id="Fill-3" fill="#CECECE" points="0 1.92050061e-05 4.85865547 9.71803708 9.71668795 1.92050061e-05"></polygon>
                                        <polygon id="Fill-4" fill="#CECECE" points="9.71668795 1.92050061e-05 14.5759589 9.71928922 19.434622 2.68870089e-05"></polygon>
                                        <polygon id="Fill-5" fill="#454648" points="9.71668824 1.92050061e-05 4.85865549 9.71803626 9.71793423 19.4373132 14.5759594 9.71928843"></polygon>
                                    </g>
                                </g>
                                <g id="text" transform="translate(26.779312, 0.262620)" fill="#252525">
                                    <g id="aequilibrium">
                                        <path d="M7.1382512,14.6462341 L6.96562262,14.6462341 C6.63474955,15.0553789 6.23554999,15.4060692 5.76801193,15.6983155 C5.3004739,15.9905618 4.69987634,16.1366827 3.96620126,16.1366827 C3.4195414,16.1366827 2.90525727,16.0453571 2.42333343,15.8627032 C1.9414096,15.6800493 1.52063168,15.4279907 1.16098703,15.1065197 C0.80134238,14.7850488 0.520823762,14.3978283 0.319422758,13.9448466 C0.118021756,13.4918648 0.0173227649,12.9950536 0.0173227649,12.4543979 C0.0173227649,11.89913 0.125214541,11.3986657 0.34100133,10.9529901 C0.55678812,10.5073146 0.858885093,10.1237471 1.24730131,9.80227614 C1.63571753,9.48080523 2.09245939,9.23605264 2.61754056,9.06801101 C3.14262176,8.89996942 3.71444817,8.81594987 4.33303697,8.81594987 C5.02355469,8.81594987 5.59178471,8.87074522 6.03774408,8.98033757 C6.48370344,9.08992995 6.85053549,9.20317368 7.1382512,9.32007219 L7.1382512,8.99129675 C7.1382512,8.4214165 6.91527486,7.95017643 6.46931549,7.57756242 C6.02335613,7.20494841 5.46951169,7.01864418 4.80776553,7.01864418 C3.82953208,7.01864418 3.00236181,7.43508889 2.32622986,8.2679908 L0.276265616,6.84329729 C1.39835692,5.41129049 2.93042014,4.69529784 4.87250124,4.69529784 C6.51248083,4.69529784 7.76402546,5.08617136 8.62717261,5.8679302 C9.49031976,6.64968902 9.92188686,7.80769755 9.92188686,9.34199055 L9.92188686,15.7859889 L7.1382512,15.7859889 L7.1382512,14.6462341 Z M7.13825129,11.4242357 C6.80737823,11.2635002 6.46572093,11.1356444 6.11326918,11.0406643 C5.76081742,10.9456843 5.37600345,10.898195 4.95881565,10.898195 C4.28268372,10.898195 3.76120683,11.047969 3.39436927,11.3475214 C3.02753174,11.6470739 2.84411573,12.0160293 2.84411573,12.4543987 C2.84411573,12.8927682 3.02033897,13.2434585 3.3727907,13.5064802 C3.72524246,13.7695018 4.13163481,13.9010107 4.59197994,13.9010107 C4.96601039,13.9010107 5.31126406,13.8316032 5.62775134,13.6927862 C5.94423863,13.5539693 6.21396806,13.3713181 6.43694774,13.1448272 C6.65992742,12.9183363 6.83255427,12.6553186 6.95483343,12.3557661 C7.07711262,12.0562137 7.13825129,11.7457066 7.13825129,11.4242357 Z M21.5427783,13.1996223 C21.0536615,14.0763611 20.3955216,14.7850477 19.5683389,15.3257034 C18.7411562,15.866359 17.7305698,16.1366827 16.5365495,16.1366827 C15.7309454,16.1366827 14.9864921,15.9942148 14.3031673,15.7092747 C13.6198424,15.4243346 13.0264376,15.026155 12.522935,14.514724 C12.0194325,14.003293 11.6274257,13.400544 11.3469029,12.7064591 C11.06638,12.0123742 10.9261207,11.2488922 10.9261207,10.4159903 C10.9261207,9.64153763 11.0627836,8.90727983 11.3361136,8.2131949 C11.6094435,7.51910998 11.9906611,6.91270803 12.4797779,6.39397088 C12.9688947,5.87523373 13.5479139,5.46244202 14.216853,5.15558343 C14.8857921,4.84872482 15.6230526,4.69529784 16.4286566,4.69529784 C17.2774181,4.69529784 18.0326605,4.83776574 18.6944067,5.12270589 C19.3561529,5.40764602 19.9099974,5.80217259 20.3559568,6.30629744 C20.8019162,6.81042228 21.1399771,7.40586515 21.3701497,8.09264392 C21.6003223,8.77942269 21.7154069,9.52463955 21.7154069,10.3283168 L21.7154069,10.5913372 C21.701021,10.6790111 21.6938283,10.7593776 21.6938283,10.8324392 C21.6794425,10.9055007 21.6722497,10.9858673 21.6722497,11.0735411 L13.7097565,11.0735411 C13.7672997,11.5119106 13.8859806,11.888172 14.065803,12.2023368 C14.2456253,12.5165015 14.4686017,12.7795193 14.7347387,12.9913978 C15.0008758,13.2032764 15.2921836,13.3567034 15.6086709,13.4516834 C15.9251582,13.5466634 16.2488335,13.5941528 16.5797066,13.5941528 C17.227067,13.5941528 17.7629296,13.4443788 18.1873103,13.1448264 C18.611691,12.8452739 18.9461555,12.4690125 19.1907139,12.0160307 L21.5427783,13.1996223 Z M18.9749279,9.03513398 C18.9605421,8.84517389 18.8994035,8.63329852 18.79151,8.39950149 C18.6836167,8.16570446 18.5253754,7.94652303 18.3167815,7.74195062 C18.1081876,7.53737822 17.8492473,7.36933913 17.5399529,7.23782829 C17.2306585,7.10631746 16.86023,7.04056302 16.4286564,7.04056302 C15.8244534,7.04056302 15.2921873,7.21590817 14.8318421,7.56660373 C14.371497,7.91729926 14.0478216,8.40680447 13.8608064,9.03513398 L18.9749279,9.03513398 Z M30.8116049,16.0270909 L30.9842335,14.4928055 L30.8116049,14.4928055 C30.5526609,14.9457873 30.1498649,15.3330078 29.6032051,15.6544787 C29.056545,15.9759496 28.3804231,16.1366827 27.5748193,16.1366827 C26.8986872,16.1366827 26.254933,15.9942147 25.6435369,15.7092746 C25.032141,15.4243345 24.4926821,15.0298079 24.0251441,14.5256831 C23.557606,14.0215582 23.1871775,13.4188093 22.9138476,12.7174182 C22.6405176,12.0160271 22.5038547,11.2488922 22.5038547,10.4159903 C22.5038547,9.58308835 22.6405176,8.81595334 22.9138476,8.11456226 C23.1871775,7.41317118 23.557606,6.81042227 24.0251441,6.30629743 C24.4926821,5.80217258 25.032141,5.40764601 25.6435369,5.12270589 C26.254933,4.83776574 26.8986872,4.69529784 27.5748193,4.69529784 C28.3804231,4.69529784 29.056545,4.85603088 29.6032051,5.17750179 C30.1498649,5.4989727 30.5526609,5.88619322 30.8116049,6.33917497 L30.9842335,6.33917497 L30.9842335,5.0459916 L33.638398,5.0459916 L33.638398,20.520355 L30.8116049,20.520355 L30.8116049,16.0270909 Z M28.1574391,13.4845615 C28.5314696,13.4845615 28.8875124,13.4151541 29.2255784,13.2763371 C29.5636444,13.1375201 29.8621448,12.9366038 30.1210891,12.6735821 C30.3800333,12.4105605 30.5886239,12.0890943 30.7468677,11.7091742 C30.9051113,11.329254 30.9842318,10.8981972 30.9842318,10.4159908 C30.9842318,9.93378442 30.9051113,9.50272761 30.7468677,9.12280744 C30.5886239,8.74288725 30.3800333,8.42142116 30.1210891,8.15839949 C29.8621448,7.89537782 29.5636444,7.69446153 29.2255784,7.55564454 C28.8875124,7.41682756 28.5314696,7.34742009 28.1574391,7.34742009 C27.7834087,7.34742009 27.4273659,7.42048058 27.0892999,7.56660372 C26.7512338,7.71272687 26.4527332,7.91729621 26.1937892,8.18031785 C25.934845,8.44333952 25.7262543,8.76480561 25.5680105,9.1447258 C25.409767,9.52464597 25.3306464,9.94839675 25.3306464,10.4159908 C25.3306464,10.8835849 25.409767,11.3073356 25.5680105,11.6872558 C25.7262543,12.067176 25.934845,12.3886421 26.1937892,12.6516637 C26.4527332,12.9146854 26.7512338,13.1192547 27.0892999,13.2653779 C27.4273659,13.411501 27.7834087,13.4845615 28.1574391,13.4845615 Z M42.7561715,14.3832142 L42.5835429,14.3832142 C42.2526698,14.9238699 41.8067172,15.3512737 41.2456713,15.6654384 C40.6846257,15.9796032 40.0444678,16.1366832 39.3251787,16.1366832 C37.9873005,16.1366832 36.9910996,15.7202385 36.3365464,14.8873366 C35.681993,14.0544346 35.3547213,12.9439153 35.3547213,11.5557454 L35.3547213,5.04599156 L38.1815141,5.04599156 L38.1815141,11.2050516 C38.1815141,11.9795043 38.3505447,12.553029 38.6886108,12.9256431 C39.0266766,13.2982571 39.5193825,13.4845613 40.1667428,13.4845613 C40.5551591,13.4845613 40.8968163,13.4005418 41.191725,13.2325002 C41.4866337,13.0644585 41.7383812,12.837971 41.946975,12.5530309 C42.155569,12.2680908 42.3138102,11.9320125 42.4217035,11.5447862 C42.5295971,11.1575598 42.5835429,10.7447681 42.5835429,10.3063987 L42.5835429,5.04599156 L45.4103358,5.04599156 L45.4103358,15.7859894 L42.7561715,15.7859894 L42.7561715,14.3832142 Z M47.4719192,15.785989 L47.4719192,5.04599156 L50.2987122,5.04599156 L50.2987122,15.785989 L47.4719192,15.785989 Z M48.8847136,3.44081628 C48.6547339,3.44081628 48.4348774,3.39644051 48.2252104,3.30768899 C48.0155102,3.21893744 47.8328939,3.09605356 47.6772951,2.93903057 C47.5217293,2.78200758 47.3999851,2.60109229 47.3120622,2.39628132 C47.2241065,2.19147035 47.1801618,1.96618265 47.1801618,1.72040814 C47.1801618,1.47463362 47.2241065,1.24934593 47.3120622,1.04453496 C47.3999851,0.839720613 47.5217293,0.658808689 47.6772951,0.501785708 C47.8328939,0.344762726 48.0155102,0.221878836 48.2252104,0.133127302 C48.4348774,0.0443757671 48.6547339,0 48.8847136,0 C49.3581818,0 49.7640401,0.167259657 50.1022555,0.501785708 C50.4404376,0.836311756 50.6095453,1.24251474 50.6095453,1.72040814 C50.6095453,2.19830153 50.4404376,2.60450452 50.1022555,2.93903057 C49.7640401,3.27355662 49.3581818,3.44081628 48.8847136,3.44081628 Z M52.3602974,15.7859897 L52.3602974,0.0924419068 L55.1870901,0.0924419068 L55.1870901,15.7859897 L52.3602974,15.7859897 Z M57.2597301,15.785989 L57.2597301,5.04599156 L60.0865228,5.04599156 L60.0865228,15.785989 L57.2597301,15.785989 Z M58.6629858,3.44081628 C58.433006,3.44081628 58.2131493,3.39644051 58.0034825,3.30768899 C57.7937823,3.21893744 57.611166,3.09605356 57.455567,2.93903057 C57.3000014,2.78200758 57.1782572,2.60109229 57.0903344,2.39628132 C57.0023787,2.19147035 56.9584337,1.96618265 56.9584337,1.72040814 C56.9584337,1.47463362 57.0023787,1.24934593 57.0903344,1.04453496 C57.1782572,0.839720613 57.3000014,0.658808689 57.455567,0.501785708 C57.611166,0.344762726 57.7937823,0.221878836 58.0034825,0.133127302 C58.2131493,0.0443757671 58.433006,6.03961325e-14 58.6629858,6.03961325e-14 C59.136454,6.03961325e-14 59.5423123,0.167259657 59.8805276,0.501785708 C60.2187098,0.836311756 60.3878174,1.24251474 60.3878174,1.72040814 C60.3878174,2.19830153 60.2187098,2.60450452 59.8805276,2.93903057 C59.5423123,3.27355662 59.136454,3.44081628 58.6629858,3.44081628 Z M62.1370497,0.0924419068 L64.9638424,0.0924419068 L64.9638424,4.80488973 L64.7912138,6.33917508 L64.9638424,6.33917508 C65.2227866,5.88619333 65.6255825,5.49897281 66.1722423,5.17750189 C66.7189021,4.85603097 67.3950239,4.69529793 68.200628,4.69529793 C68.8767598,4.69529793 69.5205142,4.83776584 70.13191,5.12270599 C70.7433058,5.40764611 71.2827647,5.80217269 71.7503027,6.30629754 C72.2178407,6.81042238 72.5882693,7.4131713 72.8615993,8.11456239 C73.1349291,8.81595347 73.271592,9.58308848 73.271592,10.4159904 C73.271592,11.2488923 73.1349291,12.0160273 72.8615993,12.7174184 C72.5882693,13.4188095 72.2178407,14.0215584 71.7503027,14.5256833 C71.2827647,15.0298081 70.7433058,15.4243347 70.13191,15.7092748 C69.5205142,15.9942149 68.8767598,16.1366829 68.200628,16.1366829 C67.3950239,16.1366829 66.7189021,15.9759498 66.1722423,15.6544789 C65.6255825,15.333008 65.2227866,14.9457875 64.9638424,14.4928057 L64.7912138,14.4928057 L64.7912138,15.7859891 L62.1370497,15.7859891 L62.1370497,0.0924419068 Z M67.6180087,13.4845615 C67.9920392,13.4845615 68.3480822,13.411501 68.686148,13.2653779 C69.0242141,13.1192547 69.3227147,12.9146854 69.581659,12.6516637 C69.840603,12.3886421 70.0491939,12.067176 70.2074374,11.6872558 C70.365681,11.3073356 70.4448018,10.8835849 70.4448018,10.4159908 C70.4448018,9.94839675 70.365681,9.52464597 70.2074374,9.1447258 C70.0491939,8.76480561 69.840603,8.44333952 69.581659,8.18031785 C69.3227147,7.91729621 69.0242141,7.71272687 68.686148,7.56660372 C68.3480822,7.42048058 67.9920392,7.34742009 67.6180087,7.34742009 C67.2439785,7.34742009 66.8879354,7.41682756 66.5498694,7.55564454 C66.2118036,7.69446153 65.913303,7.89537782 65.6543587,8.15839949 C65.3954147,8.42142116 65.1868238,8.74288725 65.0285803,9.12280744 C64.8703364,9.50272761 64.7912159,9.93378442 64.7912159,10.4159908 C64.7912159,10.8981972 64.8703364,11.329254 65.0285803,11.7091742 C65.1868238,12.0890943 65.3954147,12.4105605 65.6543587,12.6735821 C65.913303,12.9366038 66.2118036,13.1375201 66.5498694,13.2763371 C66.8879354,13.4151541 67.2439785,13.4845615 67.6180087,13.4845615 Z M74.3405644,5.04599154 L76.9947288,5.04599154 L76.9947288,6.53644018 L77.1673574,6.53644018 C77.2968294,6.27341851 77.4694563,6.03231894 77.685243,5.81313422 C77.9010299,5.59394952 78.1419882,5.40399226 78.4081251,5.24325681 C78.6742622,5.08252134 78.9619736,4.95831854 79.2712681,4.87064465 C79.5805623,4.78297076 79.8862558,4.73913449 80.1883572,4.73913449 C80.5623876,4.73913449 80.8824667,4.77566471 81.1486036,4.84872629 C81.4147407,4.92178787 81.6413134,5.01676648 81.8283286,5.13366501 L81.0730786,7.7419501 C80.9004493,7.65427621 80.7098405,7.58486877 80.5012465,7.53372567 C80.2926527,7.48258257 80.0373087,7.45701138 79.7352074,7.45701138 C79.3467911,7.45701138 78.9943447,7.5337249 78.6778573,7.68715419 C78.3613699,7.84058349 78.0916406,8.05611191 77.8686608,8.33374589 C77.6456812,8.61137986 77.4730543,8.93649898 77.3507752,9.30911299 C77.2284961,9.68172701 77.1673574,10.0872127 77.1673574,10.5255821 L77.1673574,15.785989 L74.3405644,15.785989 L74.3405644,5.04599154 Z M84.1738097,3.44081628 C83.9438299,3.44081628 83.7239732,3.39644051 83.5143064,3.30768899 C83.3046062,3.21893744 83.1219899,3.09605356 82.9663909,2.93903057 C82.8108251,2.78200758 82.6890809,2.60109229 82.6011583,2.39628132 C82.5132023,2.19147035 82.4692576,1.96618265 82.4692576,1.72040814 C82.4692576,1.47463362 82.5132023,1.24934593 82.6011583,1.04453496 C82.6890809,0.839720613 82.8108251,0.658808689 82.9663909,0.501785708 C83.1219899,0.344762726 83.3046062,0.221878836 83.5143064,0.133127302 C83.7239732,0.0443757671 83.9438299,0 84.1738097,0 C84.6472778,0 85.0531362,0.167259657 85.3913515,0.501785708 C85.7295334,0.836311756 85.898641,1.24251474 85.898641,1.72040814 C85.898641,2.19830153 85.7295334,2.60450452 85.3913515,2.93903057 C85.0531362,3.27355662 84.6472778,3.44081628 84.1738097,3.44081628 Z M82.7705499,15.785989 L82.7705499,5.04599156 L85.5973426,5.04599156 L85.5973426,15.785989 L82.7705499,15.785989 Z M94.9713384,14.3832142 L94.7987098,14.3832142 C94.4678367,14.9238699 94.0218841,15.3512737 93.4608382,15.6654384 C92.8997926,15.9796032 92.2596347,16.1366832 91.5403453,16.1366832 C90.2024672,16.1366832 89.2062665,15.7202385 88.5517133,14.8873366 C87.8971599,14.0544346 87.5698882,12.9439153 87.5698882,11.5557454 L87.5698882,5.04599156 L90.396681,5.04599156 L90.396681,11.2050516 C90.396681,11.9795043 90.5657116,12.553029 90.9037776,12.9256431 C91.2418434,13.2982571 91.7345494,13.4845613 92.3819097,13.4845613 C92.770326,13.4845613 93.1119832,13.4005418 93.4068919,13.2325002 C93.7018004,13.0644585 93.9535481,12.837971 94.1621419,12.5530309 C94.3707357,12.2680908 94.5289771,11.9320125 94.6368704,11.5447862 C94.744764,11.1575598 94.7987098,10.7447681 94.7987098,10.3063987 L94.7987098,5.04599156 L97.6255027,5.04599156 L97.6255027,15.7859894 L94.9713384,15.7859894 L94.9713384,14.3832142 Z M99.5144565,5.04599162 L102.168621,5.04599162 L102.168621,6.44876687 L102.34125,6.44876687 C102.672122,5.92272351 103.121672,5.49897275 103.68991,5.17750182 C104.258149,4.85603089 104.887518,4.69529784 105.578035,4.69529784 C106.383639,4.69529784 107.059761,4.88525508 107.606421,5.26517526 C108.153081,5.64509545 108.541491,6.11268252 108.771664,6.66795051 C109.102537,6.12729485 109.570068,5.66336078 110.174271,5.27613445 C110.778474,4.88890811 111.512138,4.69529784 112.375285,4.69529784 C113.022646,4.69529784 113.583683,4.80123553 114.058414,5.01311408 C114.533145,5.22499266 114.925152,5.52088759 115.234446,5.9008078 C115.543741,6.28072799 115.777506,6.73735597 115.93575,7.27070548 C116.093994,7.80405499 116.173114,8.38488581 116.173114,9.01321534 L116.173114,15.7859895 L113.346321,15.7859895 L113.346321,9.53925607 C113.346321,8.07802456 112.756513,7.34741975 111.576878,7.34741975 C111.202848,7.34741975 110.87198,7.4314393 110.584264,7.59948093 C110.296548,7.76752254 110.05559,7.99401003 109.861382,8.2789502 C109.667174,8.56389034 109.516125,8.90362155 109.408232,9.29815407 C109.300338,9.69268658 109.246392,10.1164373 109.246392,10.5694191 L109.246392,15.7859895 L106.4196,15.7859895 L106.4196,9.53925607 C106.4196,8.07802456 105.80102,7.34741975 104.563842,7.34741975 C104.204198,7.34741975 103.887715,7.4314393 103.614385,7.59948093 C103.341055,7.76752254 103.110886,7.99401003 102.923871,8.2789502 C102.736856,8.56389034 102.593,8.90362155 102.4923,9.29815407 C102.391599,9.69268658 102.34125,10.1164373 102.34125,10.5694191 L102.34125,15.7859895 L99.5144565,15.7859895 L99.5144565,5.04599162 Z" id="Shape"></path>
                                    </g>
                                </g>
                            </g>
                        </g>
                    </g>
                </g>
            </g>
        </g>
    </g>
</svg>