<svg xmlns="http://www.w3.org/2000/svg" viewBox="0 0 326.2 297.45"><path d="M48.19,242.7c-5.7-4.73-9.66-6.28-15.36-6.28-13.13,0-21.34,10.62-21.34,27.72,0,16.8,8.6,27.81,21.63,27.81,5.8,0,9.66-1.74,15.07-6.86v8.5a34.8,34.8,0,0,1-16.81,3.86c-20.27,0-31.38-12-31.38-33.6,0-21,11.88-32.74,32.93-32.74A36.68,36.68,0,0,1,48.19,234Z" style="fill:#333"/><path d="M59.19,293.78a8.26,8.26,0,0,0-.38,2.71H52.72a14,14,0,0,0,1.36-2.71l21-59.39a10.12,10.12,0,0,0,.48-2.31h9.27a10.27,10.27,0,0,0,.48,2.12l21.73,59.58a11.8,11.8,0,0,0,1.55,2.71H96.08a6.94,6.94,0,0,0-.48-2.71L89.42,276.3h-24Zm28.4-22.21L77.16,242.5,67,271.57Z" style="fill:#333"/><path d="M113.27,284.8c6.18,5.51,9.66,7.05,15.26,7.05,7.24,0,12.26-4.54,12.26-11.1a10.08,10.08,0,0,0-4.24-8.6c-1.45-1.16-4.06-2.51-9.76-5.21-11-5.22-15.26-10.24-15.26-18.06,0-10.53,8.69-17.77,21.35-17.77a33.15,33.15,0,0,1,15,3.48l-2,6.85c-5.22-3.76-9.18-5.21-13.52-5.21-6.09,0-10.63,4.15-10.63,9.56s2.61,7.72,13.33,12.65c6.47,3,9.75,5.21,12.07,8a17.71,17.71,0,0,1,4,11.3A19.77,19.77,0,0,1,143.79,293c-3.57,2.9-8.89,4.44-14.87,4.44-6.47,0-11.11-1.25-17.87-4.92Z" style="fill:#333"/><path d="M200.38,232.08V238a17.22,17.22,0,0,0-4-.49h-14V293.4a10.87,10.87,0,0,0,.39,3.09H171.31a10.87,10.87,0,0,0,.38-3.09V237.48h-14a16.21,16.21,0,0,0-4.05.49v-5.89Z" style="fill:#333"/><path d="M205.3,296.49a12.16,12.16,0,0,0,.39-3V235.17a12.77,12.77,0,0,0-.39-3.09h11.49a11.23,11.23,0,0,0-.38,3.09v56.1h18.25a7.78,7.78,0,0,0,3.28-.48v5.7Z" style="fill:#333"/><path d="M278.88,232.08v5.21a8,8,0,0,0-3-.48H256.67v24.62h18.74a10.3,10.3,0,0,0,3.57-.38v5.21a11.92,11.92,0,0,0-3.48-.29H256.67v25.3h18.64a14.48,14.48,0,0,0,3.67-.48v5.7H245.57a10.87,10.87,0,0,0,.38-3.09V235.17a10.35,10.35,0,0,0-.38-3.09Z" style="fill:#333"/><path d="M288.44,284.8c6.18,5.51,9.66,7.05,15.26,7.05,7.24,0,12.27-4.54,12.27-11.1a10.09,10.09,0,0,0-4.25-8.6c-1.45-1.16-4.06-2.51-9.76-5.21-11-5.22-15.26-10.24-15.26-18.06,0-10.53,8.7-17.77,21.35-17.77a33.22,33.22,0,0,1,15,3.48l-2,6.85c-5.22-3.76-9.18-5.21-13.52-5.21-6.09,0-10.63,4.15-10.63,9.56s2.61,7.72,13.33,12.65c6.47,3,9.75,5.21,12.07,8a17.71,17.71,0,0,1,4,11.3A19.77,19.77,0,0,1,319,293c-3.57,2.9-8.89,4.44-14.87,4.44-6.47,0-11.11-1.25-17.87-4.92Z" style="fill:#333"/><path d="M221,0V48.07c0,7.56-5.89,13.71-13.14,13.71H175.35c-6.56,0-10.35-3.11-10.67-8.75l-.05-.92-.92,0-4-.1-.93,0-.09.92c-.59,5.57-6,9.46-13.15,9.46H118c-7.27,0-12.76-5.65-12.76-13.14V0h18.68V44.24h32V10.35h15.64v29H204V0Z" style="fill:#d93a2b"/><path d="M206.59,69.91H120c-8,0-14.56,7.38-14.56,16.46V152.1c0,9.05,6.1,15.87,14.19,15.87h23.91V149h0V136.56h40.26v8.86h0V168h22.8c8.09,0,14.2-6.82,14.2-15.87V85.78C220.79,76.73,214.68,69.91,206.59,69.91Zm-6,37.66h-9.85V93.11h9.85Zm-57.11,0V93.11h40.26v14.46Zm17.2,7v15H125.57v-15Zm7,0h32.91v15H167.72Zm-31.2-21.46v14.46h-11V93.11Zm0,51.86h-11v-8.41h11Zm54.26,0v-8.41h9.85V145Z" style="fill:#333"/><path d="M43.31,200.07c3.66,0,5.76,1.8,5.76,5a4.26,4.26,0,0,1-2.13,3.87,8.48,8.48,0,0,1-1.92.75c2.94.51,4.44,2.22,4.44,5,0,3.21-2.34,5.46-5.73,5.46H36.56a3.45,3.45,0,0,0,.12-1V201a3.24,3.24,0,0,0-.12-1Zm-1.86,9a4.91,4.91,0,0,0,2.91-.69,3.88,3.88,0,0,0,1.41-3.33c0-2.31-1.23-3.48-3.63-3.48H40v7.5Zm.93,9.48c2.46,0,3.69-1.29,3.69-3.84a4.18,4.18,0,0,0-1.32-3.33,4.59,4.59,0,0,0-3.27-.9H40v8.07Z" style="fill:#999"/><path d="M87.74,200.07a3.37,3.37,0,0,0-.12,1v12.42a7,7,0,0,1-1.14,4.08c-1.35,1.92-3.6,2.85-6.93,2.85-3,0-5-.78-6.33-2.52a6.68,6.68,0,0,1-1.41-4.26V201a3.82,3.82,0,0,0-.12-1h3.57a3.66,3.66,0,0,0-.12,1v12.63c0,3.21,2,5.1,5.34,5.1,3.6,0,5.64-2,5.64-5.55V201a3.11,3.11,0,0,0-.12-1Z" style="fill:#999"/><path d="M114.41,200.07a3,3,0,0,0-.12,1v18.09a3,3,0,0,0,.12,1h-3.57a3.82,3.82,0,0,0,.12-1V201a3.82,3.82,0,0,0-.12-1Z" style="fill:#999"/><path d="M137.72,220.08a3.76,3.76,0,0,0,.12-.93V201a4,4,0,0,0-.12-1h3.57a3.51,3.51,0,0,0-.12,1v17.43h5.67a2.44,2.44,0,0,0,1-.15v1.77Z" style="fill:#999"/><path d="M175.28,200.07c6.3,0,10.2,3.75,10.2,9.84s-3.87,10.17-9.33,10.17h-7a3.82,3.82,0,0,0,.12-1V201a3.37,3.37,0,0,0-.12-1Zm0,18.3a5.61,5.61,0,0,0,4.23-1.59c1.53-1.5,2.37-4,2.37-6.9,0-3.15-1-5.4-2.94-6.87a6.91,6.91,0,0,0-4.2-1.29h-2.19v16.65Z" style="fill:#999"/><path d="M211.49,200.07a3,3,0,0,0-.12,1v18.09a3,3,0,0,0,.12,1h-3.57a3.82,3.82,0,0,0,.12-1V201a3.82,3.82,0,0,0-.12-1Z" style="fill:#999"/><path d="M236.39,219.12a3.37,3.37,0,0,0,.12,1h-1.77a3.82,3.82,0,0,0,.12-1V201a3.66,3.66,0,0,0-.12-1h3.18a1.38,1.38,0,0,0,.36.69l10.92,15.3V201a3.51,3.51,0,0,0-.12-1h1.77a2.77,2.77,0,0,0-.12,1v18.15a1.87,1.87,0,0,0,.15.9H248l-.12-.27s-.15-.21-.33-.48l-11.13-15.57Z" style="fill:#999"/><path d="M288.83,203.34a8.92,8.92,0,0,0-5.43-1.89,6.18,6.18,0,0,0-4.74,2c-1.41,1.56-2,3.66-2,6.72,0,5.43,2.4,8.58,6.48,8.58a5.46,5.46,0,0,0,3.09-.84v-7.83a3.37,3.37,0,0,0-.12-1h3.48a3.66,3.66,0,0,0-.12,1v7.71a2.53,2.53,0,0,0,.21,1.2c-3.66,1.2-4.62,1.38-6.9,1.38-3,0-5.22-.78-6.9-2.52a10.65,10.65,0,0,1-2.79-7.71c0-6.45,3.87-10.38,10.2-10.38a14.47,14.47,0,0,1,5.58,1.08Z" style="fill:#999"/></svg>